<svg width="26" height="26" viewBox="0 0 26 26" fill="none" xmlns="http://www.w3.org/2000/svg">
<path fill-rule="evenodd" clip-rule="evenodd" d="M17.9611 15.2756H16.898V12.8777C16.898 12.3258 16.5764 12.0288 16.0822 12.0288C15.5301 12.0288 15.1759 12.3665 15.1759 13.0506V15.2756H14.1127V9.41047H15.1759V11.6166C15.431 11.2295 15.8435 11.0401 16.4036 11.0401C16.8569 11.0401 17.2276 11.1882 17.5158 11.4931C17.8126 11.7981 17.9611 12.2099 17.9611 12.7457V15.2756ZM10.3184 14.2745C11.1025 14.2745 11.7733 13.8053 11.9753 13.0801H13.1348C12.8513 14.4758 11.765 15.3904 10.3184 15.3904C8.63675 15.3904 7.30387 14.1366 7.30387 12.3911C7.30387 10.6459 8.63675 9.39177 10.3184 9.39177C11.7796 9.39177 12.8735 10.325 13.1433 11.7451H11.9866C11.8109 10.9732 11.1168 10.492 10.3184 10.492C9.18773 10.492 8.43562 11.2985 8.43562 12.3911C8.43562 13.4846 9.29058 14.2745 10.3184 14.2745V14.2745ZM13.0001 5C8.58138 5 5 8.31285 5 12.3996C5 15.4178 6.26417 16.8587 7.99561 18.1722L8.00366 18.1762V21.718C8.00366 21.8854 8.19456 21.9808 8.3285 21.881L11.3619 19.628L11.4276 19.656C11.936 19.7497 12.4617 19.7995 13.0001 19.7995C17.4184 19.7995 21 16.4863 21 12.3996C21 8.31285 17.4184 5 13.0001 5Z" fill="white"/>
</svg>
