<svg width="20" height="20" viewBox="0 0 20 20" fill="none" xmlns="http://www.w3.org/2000/svg">
<path d="M14.4886 4.0818C15.1655 3.82798 15.8792 4.19059 16.1174 4.81445C16.1706 4.95383 16.2 5.10624 16.2 5.26773V14.6378C16.2 15.5222 15.3167 16.1344 14.4886 15.8239L7.5335 13.2157V6.68997L14.4886 4.0818Z" fill="#191919"/>
<path d="M6.3335 6.88257H4.26667C3.56711 6.88257 3 7.44968 3 8.14924V11.7571C3 11.791 3.00133 11.8247 3.00396 11.8579C3.05554 12.5101 3.60116 13.0233 4.26663 13.0233H6.3335V6.88257Z" fill="#191919"/>
<path d="M4.83333 14.6391V14.2233H6.80292L8.99412 15.045C8.80501 16.0106 7.95425 16.7391 6.93333 16.7391C5.77354 16.7391 4.83333 15.7989 4.83333 14.6391Z" fill="#191919"/>
</svg>
