<svg width="26" height="26" viewBox="0 0 26 26" fill="none" xmlns="http://www.w3.org/2000/svg">
<path fill-rule="evenodd" clip-rule="evenodd" d="M9.4878 5C7.00926 5 5 7.00926 5 9.4878V16.5122C5 18.9907 7.00926 21 9.4878 21H16.5122C18.9907 21 21 18.9907 21 16.5122V9.4878C21 7.00926 18.9907 5 16.5122 5H9.4878ZM6.17073 9.4878C6.17073 7.65584 7.65584 6.17073 9.4878 6.17073H16.5122C18.3442 6.17073 19.8293 7.65584 19.8293 9.4878V16.5122C19.8293 18.3442 18.3442 19.8293 16.5122 19.8293H9.4878C7.65584 19.8293 6.17073 18.3442 6.17073 16.5122V9.4878ZM17.0813 9.97646C17.5777 9.97646 17.9801 9.57403 17.9801 9.07775C17.9801 8.58136 17.5777 8.17907 17.0813 8.17907C16.585 8.17907 16.1826 8.58136 16.1826 9.07775C16.1826 9.57403 16.585 9.97646 17.0813 9.97646ZM10.5824 13.0795C10.5824 14.4583 11.7008 15.5766 13.0795 15.5766C14.4584 15.5766 15.5766 14.4583 15.5766 13.0795C15.5766 11.7006 14.4584 10.5824 13.0795 10.5824C11.7008 10.5824 10.5824 11.7006 10.5824 13.0795ZM9.22998 13.0795C9.22998 10.9542 10.9543 9.22996 13.0795 9.22996C15.2049 9.22996 16.9291 10.9542 16.9291 13.0795C16.9291 15.2048 15.2049 16.929 13.0795 16.929C10.9543 16.929 9.22998 15.2048 9.22998 13.0795Z" fill="white"/>
</svg>
