<svg width="17" height="15" viewBox="0 0 17 15" fill="none" xmlns="http://www.w3.org/2000/svg">
<path d="M15.2743 2.06006C13.6428 0.428546 10.9976 0.428547 9.36607 2.06007L8.11727 3.30886C8.09802 3.32463 8.07937 3.34149 8.0614 3.35945L4.27034 7.15052C3.32529 8.09556 3.32529 9.62778 4.27034 10.5728C5.21538 11.5179 6.7476 11.5179 7.69264 10.5728L11.7501 6.51541C12.043 6.22252 12.043 5.74764 11.7501 5.45475C11.4572 5.16186 10.9823 5.16186 10.6894 5.45475L6.63198 9.51217C6.27273 9.87142 5.69025 9.87142 5.331 9.51217C4.97174 9.15291 4.97174 8.57044 5.331 8.21118L6.5798 6.96237C6.59905 6.94661 6.6177 6.92975 6.63566 6.91179L10.4267 3.12073C11.4725 2.07499 13.1679 2.07499 14.2137 3.12072C15.2594 4.16646 15.2594 5.86192 14.2137 6.90766L13.5707 7.55061C13.557 7.5625 13.5435 7.57498 13.5305 7.58804L9.02471 12.0938C7.34398 13.7745 4.619 13.7745 2.93827 12.0938C1.25755 10.4131 1.25755 7.6881 2.93828 6.00738L6.20108 2.74458C6.49397 2.45168 6.49397 1.97681 6.20108 1.68392C5.90819 1.39102 5.43331 1.39102 5.14042 1.68392L1.87762 4.94672C-0.388892 7.21323 -0.388894 10.888 1.87761 13.1545C4.14412 15.421 7.81886 15.421 10.0854 13.1545L10.8215 12.4183C10.8353 12.4064 10.8487 12.3939 10.8618 12.3809L15.2743 7.96832C16.9058 6.3368 16.9058 3.69158 15.2743 2.06006Z" fill="#4E5968"/>
</svg>
