<svg width="38" height="38" viewBox="0 0 38 38" fill="none" xmlns="http://www.w3.org/2000/svg">
<path d="M5 10C5 8.34315 6.34315 7 8 7H30C31.6569 7 33 8.34315 33 10V25C33 26.6569 31.6569 28 30 28H8C6.34315 28 5 26.6569 5 25V10Z" fill="#191919"/>
<path fill-rule="evenodd" clip-rule="evenodd" d="M8.25 25C8.25 24.5858 8.58579 24.25 9 24.25H29C29.4142 24.25 29.75 24.5858 29.75 25C29.75 25.4142 29.4142 25.75 29 25.75H9C8.58579 25.75 8.25 25.4142 8.25 25Z" fill="white"/>
<path d="M16 26H22C22 27.987 22.3203 29.961 22.9487 31.8461L23 32H15L15.0513 31.8461C15.6797 29.961 16 27.987 16 26Z" fill="#191919"/>
<path d="M13 32.75C13 32.3358 13.3358 32 13.75 32H24.25C24.6642 32 25 32.3358 25 32.75C25 33.1642 24.6642 33.5 24.25 33.5H13.75C13.3358 33.5 13 33.1642 13 32.75Z" fill="#191919"/>
</svg>
