<svg width="48" height="50" viewBox="0 0 48 50" fill="none" xmlns="http://www.w3.org/2000/svg">
<path fill-rule="evenodd" clip-rule="evenodd" d="M24 36.9667C31.7538 36.9667 38 31.8389 38 25.4833C38 19.1278 31.7538 14 24 14C16.2462 14 10 19.1278 10 25.4833C10.0656 28.4207 11.3606 31.2072 13.5562 33.1536C13.9169 33.4735 14.0435 33.9935 13.828 34.4248L12.3248 37.4318C11.9012 38.2793 12.784 39.186 13.6424 38.785L18.7411 36.4037C18.9609 36.301 19.2102 36.2828 19.4444 36.3459C20.944 36.7502 22.472 36.9667 24 36.9667ZM20.5 25.75C20.5 26.4404 19.9404 27 19.25 27C18.5596 27 18 26.4404 18 25.75C18 25.0596 18.5596 24.5 19.25 24.5C19.9404 24.5 20.5 25.0596 20.5 25.75ZM25.25 25.75C25.25 26.4404 24.6904 27 24 27C23.3096 27 22.75 26.4404 22.75 25.75C22.75 25.0596 23.3096 24.5 24 24.5C24.6904 24.5 25.25 25.0596 25.25 25.75ZM28.75 27C29.4404 27 30 26.4404 30 25.75C30 25.0596 29.4404 24.5 28.75 24.5C28.0596 24.5 27.5 25.0596 27.5 25.75C27.5 26.4404 28.0596 27 28.75 27Z" fill="#191919"/>
</svg>
