<svg width="26" height="26" viewBox="0 0 26 26" fill="none" xmlns="http://www.w3.org/2000/svg">
<path fill-rule="evenodd" clip-rule="evenodd" d="M20.6656 8.76027C20.4816 8.06736 19.9395 7.52173 19.2511 7.33655C18.0034 7 13 7 13 7C13 7 7.99664 7 6.74891 7.33655C6.06055 7.52173 5.51836 8.06736 5.33436 8.76027C5 10.0161 5 12.6364 5 12.6364C5 12.6364 5 15.2565 5.33436 16.5125C5.51836 17.2054 6.06055 17.751 6.74891 17.9363C7.99664 18.2727 13 18.2727 13 18.2727C13 18.2727 18.0034 18.2727 19.2511 17.9363C19.9395 17.751 20.4816 17.2054 20.6656 16.5125C21 15.2565 21 12.6364 21 12.6364C21 12.6364 21 10.0161 20.6656 8.76027M11.3636 15.0154V10.2574L15.5454 12.6365L11.3636 15.0154" fill="white"/>
</svg>
