<svg width="282" height="282" viewBox="0 0 282 282" fill="none" xmlns="http://www.w3.org/2000/svg">
<rect width="282" height="282" rx="20" fill="#001469"/>
<path d="M175.084 82.5461L180.675 69.4224C180.762 69.2303 180.787 69.0156 180.745 68.8087C180.704 68.6018 180.599 68.4131 180.444 68.2694C180.29 68.1257 180.094 68.0342 179.884 68.0079C179.675 67.9815 179.463 68.0217 179.277 68.1226L162.366 76.3756C158.56 75.327 154.63 74.7981 150.682 74.8032C131.178 74.8032 115.371 87.298 115.371 102.707C115.371 118.116 131.178 130.603 150.682 130.603C170.186 130.603 186 118.109 186 102.707C186 94.7823 181.807 87.6334 175.091 82.5461" fill="white"/>
<path d="M132.031 94.208C112.129 94.208 96 106.954 96 122.678C96 130.763 100.277 138.051 107.125 143.244L101.444 156.64C101.365 156.833 101.346 157.045 101.39 157.249C101.433 157.452 101.537 157.638 101.688 157.782C101.84 157.925 102.03 158.02 102.236 158.053C102.442 158.086 102.653 158.056 102.841 157.967L120.095 149.54C123.981 150.608 127.994 151.147 132.024 151.14C151.919 151.14 168.047 138.394 168.047 122.678C168.047 106.961 151.919 94.208 132.024 94.208" fill="#FFE100"/>
<path d="M87.5807 217.736C89.3087 216.92 90.7807 215.896 91.9967 214.664C93.2127 213.432 94.1807 212.088 94.9007 210.632C94.1967 210.712 93.4447 210.768 92.6447 210.8C91.8447 210.832 91.0607 210.848 90.2927 210.848H88.1087V209.144H90.2207C91.1487 209.144 92.0927 209.128 93.0527 209.096C94.0287 209.048 94.9007 208.976 95.6687 208.88C96.1007 207.664 96.3647 206.432 96.4607 205.184H88.7327V203.456H98.5247C98.4927 205.296 98.2287 207.024 97.7327 208.64C97.2527 210.24 96.5807 211.704 95.7167 213.032C94.8687 214.36 93.8607 215.544 92.6927 216.584C91.5247 217.608 90.2607 218.464 88.9007 219.152L87.5807 217.736ZM102.221 222.752V201.368H104.237V209.672H107.477V211.496H104.237V222.752H102.221ZM109.539 217.736C111.267 216.92 112.739 215.896 113.955 214.664C115.171 213.432 116.139 212.088 116.859 210.632C116.155 210.712 115.403 210.768 114.603 210.8C113.803 210.832 113.019 210.848 112.251 210.848H110.067V209.144H112.179C113.107 209.144 114.051 209.128 115.011 209.096C115.987 209.048 116.859 208.976 117.627 208.88C118.059 207.664 118.323 206.432 118.419 205.184H110.691V203.456H120.483C120.451 205.296 120.187 207.024 119.691 208.64C119.211 210.24 118.539 211.704 117.675 213.032C116.827 214.36 115.819 215.544 114.651 216.584C113.483 217.608 112.219 218.464 110.859 219.152L109.539 217.736ZM124.179 222.752V201.368H126.195V209.672H129.435V211.496H126.195V222.752H124.179ZM139.969 218.696V213.992C139.009 213.896 138.129 213.68 137.329 213.344C136.529 213.008 135.841 212.584 135.265 212.072C134.705 211.544 134.265 210.952 133.945 210.296C133.625 209.624 133.465 208.904 133.465 208.136C133.465 207.304 133.649 206.528 134.017 205.808C134.401 205.088 134.929 204.464 135.601 203.936C136.273 203.408 137.065 202.992 137.977 202.688C138.905 202.384 139.921 202.232 141.025 202.232C142.129 202.232 143.137 202.384 144.049 202.688C144.977 202.992 145.777 203.408 146.449 203.936C147.121 204.464 147.641 205.088 148.009 205.808C148.393 206.528 148.585 207.304 148.585 208.136C148.585 208.904 148.425 209.624 148.105 210.296C147.785 210.968 147.337 211.568 146.761 212.096C146.185 212.608 145.489 213.032 144.673 213.368C143.873 213.688 142.993 213.896 142.033 213.992V218.696H150.985V220.424H131.017V218.696H139.969ZM141.025 203.96C140.209 203.96 139.465 204.064 138.793 204.272C138.121 204.48 137.537 204.768 137.041 205.136C136.545 205.504 136.161 205.944 135.889 206.456C135.617 206.968 135.481 207.528 135.481 208.136C135.481 208.744 135.617 209.304 135.889 209.816C136.161 210.328 136.545 210.768 137.041 211.136C137.537 211.504 138.121 211.792 138.793 212C139.465 212.208 140.209 212.312 141.025 212.312C141.841 212.312 142.585 212.208 143.257 212C143.929 211.792 144.513 211.504 145.009 211.136C145.505 210.768 145.889 210.328 146.161 209.816C146.433 209.304 146.569 208.744 146.569 208.136C146.569 207.528 146.433 206.968 146.161 206.456C145.889 205.944 145.505 205.504 145.009 205.136C144.513 204.768 143.929 204.48 143.257 204.272C142.585 204.064 141.841 203.96 141.025 203.96ZM160.415 211.184C159.615 211.184 158.871 211.064 158.183 210.824C157.511 210.568 156.927 210.232 156.431 209.816C155.935 209.384 155.543 208.888 155.255 208.328C154.983 207.752 154.847 207.136 154.847 206.48C154.847 205.84 154.983 205.232 155.255 204.656C155.543 204.08 155.935 203.584 156.431 203.168C156.927 202.736 157.511 202.4 158.183 202.16C158.871 201.904 159.615 201.776 160.415 201.776C161.215 201.776 161.951 201.904 162.623 202.16C163.311 202.4 163.903 202.736 164.399 203.168C164.895 203.584 165.279 204.08 165.551 204.656C165.839 205.232 165.983 205.84 165.983 206.48C165.983 207.136 165.839 207.752 165.551 208.328C165.279 208.888 164.895 209.384 164.399 209.816C163.903 210.232 163.311 210.568 162.623 210.824C161.951 211.064 161.215 211.184 160.415 211.184ZM169.295 222.752V218.504H164.279V216.8H169.295V201.368H171.311V222.752H169.295ZM159.263 222.272V214.592H153.599V212.864H160.415C161.087 212.864 161.775 212.856 162.479 212.84C163.199 212.808 163.895 212.768 164.567 212.72C165.255 212.672 165.911 212.616 166.535 212.552C167.159 212.472 167.719 212.384 168.215 212.288V213.968C167.319 214.176 166.271 214.328 165.071 214.424C163.887 214.52 162.623 214.576 161.279 214.592V222.272H159.263ZM160.415 203.504C159.839 203.504 159.327 203.584 158.879 203.744C158.431 203.904 158.055 204.12 157.751 204.392C157.447 204.664 157.215 204.984 157.055 205.352C156.895 205.704 156.815 206.08 156.815 206.48C156.815 206.88 156.895 207.264 157.055 207.632C157.215 207.984 157.447 208.296 157.751 208.568C158.055 208.84 158.431 209.056 158.879 209.216C159.327 209.376 159.839 209.456 160.415 209.456C160.991 209.456 161.503 209.376 161.951 209.216C162.399 209.056 162.775 208.84 163.079 208.568C163.383 208.296 163.615 207.984 163.775 207.632C163.935 207.264 164.015 206.88 164.015 206.48C164.015 206.08 163.935 205.704 163.775 205.352C163.615 204.984 163.383 204.664 163.079 204.392C162.775 204.12 162.399 203.904 161.951 203.744C161.503 203.584 160.991 203.504 160.415 203.504ZM188.445 218.456C188.701 217.496 188.933 216.424 189.141 215.24C189.349 214.04 189.541 212.816 189.717 211.568C188.325 211.696 186.821 211.784 185.205 211.832C183.605 211.864 181.981 211.88 180.333 211.88H177.093V210.176H180.357C181.957 210.176 183.573 210.16 185.205 210.128C186.853 210.096 188.429 210.016 189.933 209.888C190.045 208.976 190.133 208.088 190.197 207.224C190.261 206.36 190.309 205.544 190.341 204.776H177.453V203.048H192.405C192.373 204.328 192.301 205.656 192.189 207.032C192.077 208.408 191.933 209.768 191.757 211.112C191.597 212.456 191.405 213.76 191.181 215.024C190.957 216.288 190.717 217.432 190.461 218.456H194.901V220.184H174.933V218.456H188.445Z" fill="white"/>
</svg>
