<svg width="282" height="282" viewBox="0 0 282 282" fill="none" xmlns="http://www.w3.org/2000/svg">
<rect width="282" height="282" rx="20" fill="#0082FF"/>
<path d="M181.927 105.78H172.84V114.831H181.927V105.78Z" fill="#FFE100"/>
<path d="M182.843 123.875V126.125C182.83 130.584 181.047 134.856 177.887 138.002C174.728 141.149 170.448 142.913 165.989 142.907H116.01C111.559 142.907 107.29 141.139 104.143 137.992C100.996 134.844 99.228 130.576 99.228 126.125C99.228 121.674 100.996 117.405 104.143 114.258C107.29 111.111 111.559 109.343 116.01 109.343H117.33V105.679C117.446 99.4737 119.995 93.5626 124.428 89.2186C128.86 84.8745 134.822 82.4451 141.028 82.4536C147.234 82.4621 153.189 84.9079 157.609 89.264C162.03 93.6202 164.562 99.5384 164.662 105.744H172.783C172.767 97.635 169.655 89.8384 164.082 83.9478C158.51 78.0572 150.898 74.5175 142.802 74.0524C134.707 73.5873 126.739 76.2319 120.529 81.4455C114.318 86.6592 110.334 94.0481 109.389 102.102C103.555 103.681 98.4953 107.329 95.1529 112.365C91.8106 117.401 90.4144 123.481 91.2249 129.471C92.0354 135.46 94.9972 140.95 99.5577 144.917C104.118 148.883 109.966 151.055 116.01 151.028H165.989C169.266 151.035 172.513 150.397 175.544 149.15C178.575 147.902 181.33 146.07 183.653 143.757C185.976 141.445 187.82 138.697 189.08 135.672C190.341 132.646 190.993 129.402 191 126.125V123.86H182.843V123.875Z" fill="white"/>
<path d="M56.6619 217.736C58.3899 216.92 59.8619 215.896 61.0779 214.664C62.2939 213.432 63.2619 212.088 63.9819 210.632C63.2779 210.712 62.5259 210.768 61.7259 210.8C60.9259 210.832 60.1419 210.848 59.3739 210.848H57.1899V209.144H59.3019C60.2299 209.144 61.1739 209.128 62.1339 209.096C63.1099 209.048 63.9819 208.976 64.7499 208.88C65.1819 207.664 65.4459 206.432 65.5419 205.184H57.8139V203.456H67.6059C67.5739 205.296 67.3099 207.024 66.8139 208.64C66.3339 210.24 65.6619 211.704 64.7979 213.032C63.9499 214.36 62.9419 215.544 61.7739 216.584C60.6059 217.608 59.3419 218.464 57.9819 219.152L56.6619 217.736ZM71.3019 222.752V201.368H73.3179V209.672H76.5579V211.496H73.3179V222.752H71.3019ZM78.6201 217.736C80.3481 216.92 81.8201 215.896 83.0361 214.664C84.2521 213.432 85.2201 212.088 85.9401 210.632C85.2361 210.712 84.4841 210.768 83.6841 210.8C82.8841 210.832 82.1001 210.848 81.3321 210.848H79.1481V209.144H81.2601C82.1881 209.144 83.1321 209.128 84.0921 209.096C85.0681 209.048 85.9401 208.976 86.7081 208.88C87.1401 207.664 87.4041 206.432 87.5001 205.184H79.7721V203.456H89.5641C89.5321 205.296 89.2681 207.024 88.7721 208.64C88.2921 210.24 87.6201 211.704 86.7561 213.032C85.9081 214.36 84.9001 215.544 83.7321 216.584C82.5641 217.608 81.3001 218.464 79.9401 219.152L78.6201 217.736ZM93.2601 222.752V201.368H95.2761V209.672H98.5161V211.496H95.2761V222.752H93.2601ZM109.05 218.696V213.992C108.09 213.896 107.21 213.68 106.41 213.344C105.61 213.008 104.922 212.584 104.346 212.072C103.786 211.544 103.346 210.952 103.026 210.296C102.706 209.624 102.546 208.904 102.546 208.136C102.546 207.304 102.73 206.528 103.098 205.808C103.482 205.088 104.01 204.464 104.682 203.936C105.354 203.408 106.146 202.992 107.058 202.688C107.986 202.384 109.002 202.232 110.106 202.232C111.21 202.232 112.218 202.384 113.13 202.688C114.058 202.992 114.858 203.408 115.53 203.936C116.202 204.464 116.722 205.088 117.09 205.808C117.474 206.528 117.666 207.304 117.666 208.136C117.666 208.904 117.506 209.624 117.186 210.296C116.866 210.968 116.418 211.568 115.842 212.096C115.266 212.608 114.57 213.032 113.754 213.368C112.954 213.688 112.074 213.896 111.114 213.992V218.696H120.066V220.424H100.098V218.696H109.05ZM110.106 203.96C109.29 203.96 108.546 204.064 107.874 204.272C107.202 204.48 106.618 204.768 106.122 205.136C105.626 205.504 105.242 205.944 104.97 206.456C104.698 206.968 104.562 207.528 104.562 208.136C104.562 208.744 104.698 209.304 104.97 209.816C105.242 210.328 105.626 210.768 106.122 211.136C106.618 211.504 107.202 211.792 107.874 212C108.546 212.208 109.29 212.312 110.106 212.312C110.922 212.312 111.666 212.208 112.338 212C113.01 211.792 113.594 211.504 114.09 211.136C114.586 210.768 114.97 210.328 115.242 209.816C115.514 209.304 115.65 208.744 115.65 208.136C115.65 207.528 115.514 206.968 115.242 206.456C114.97 205.944 114.586 205.504 114.09 205.136C113.594 204.768 113.01 204.48 112.338 204.272C111.666 204.064 110.922 203.96 110.106 203.96ZM130.007 205.28C129.575 205.28 129.191 205.12 128.855 204.8C128.535 204.48 128.375 204.088 128.375 203.624C128.375 203.16 128.535 202.768 128.855 202.448C129.191 202.112 129.575 201.944 130.007 201.944C130.471 201.944 130.863 202.112 131.183 202.448C131.519 202.768 131.687 203.16 131.687 203.624C131.687 204.088 131.519 204.48 131.183 204.8C130.863 205.12 130.471 205.28 130.007 205.28ZM128.927 220.76V207.68H131.135V220.76H128.927ZM139.978 211.304V209.648H154.57C154.666 209.232 154.754 208.8 154.834 208.352C154.914 207.904 154.994 207.448 155.074 206.984C153.554 207.128 151.946 207.216 150.25 207.248C148.554 207.28 146.93 207.296 145.378 207.296H142.09V205.688H145.402C147.178 205.688 148.914 205.672 150.61 205.64C152.306 205.608 153.866 205.528 155.29 205.4C155.354 204.792 155.402 204.208 155.434 203.648H142.45V201.992H157.498C157.45 203.416 157.33 204.8 157.138 206.144C156.962 207.488 156.762 208.656 156.538 209.648H159.946V211.304H139.978ZM142.762 222.512V217.04H155.146V214.976H142.762V213.32H157.162V218.648H144.778V220.832H157.642V222.512H142.762ZM177.056 222.752V201.368H179.072V209.552H182.312V211.376H179.072V222.752H177.056ZM175.856 217.232C175.2 217.376 174.496 217.496 173.744 217.592C172.992 217.688 172.216 217.768 171.416 217.832C170.616 217.896 169.808 217.944 168.992 217.976C168.192 217.992 167.424 218 166.688 218H163.232V209.552H170.864V204.92H163.232V203.216H172.88V211.232H165.248V216.272H166.688C167.424 216.272 168.184 216.264 168.968 216.248C169.768 216.216 170.56 216.176 171.344 216.128C172.144 216.064 172.92 215.984 173.672 215.888C174.44 215.792 175.168 215.68 175.856 215.552V217.232ZM193.902 211.544C192.798 211.544 191.782 211.416 190.854 211.16C189.942 210.904 189.15 210.552 188.478 210.104C187.806 209.656 187.278 209.128 186.894 208.52C186.526 207.912 186.342 207.256 186.342 206.552C186.342 205.848 186.526 205.192 186.894 204.584C187.278 203.976 187.806 203.448 188.478 203C189.15 202.552 189.942 202.2 190.854 201.944C191.782 201.688 192.798 201.56 193.902 201.56C195.006 201.56 196.014 201.688 196.926 201.944C197.854 202.2 198.654 202.552 199.326 203C199.998 203.448 200.518 203.976 200.886 204.584C201.27 205.192 201.462 205.848 201.462 206.552C201.462 207.256 201.27 207.912 200.886 208.52C200.518 209.128 199.998 209.656 199.326 210.104C198.654 210.552 197.854 210.904 196.926 211.16C196.014 211.416 195.006 211.544 193.902 211.544ZM193.902 203.288C193.086 203.288 192.342 203.368 191.67 203.528C190.998 203.672 190.414 203.888 189.918 204.176C189.422 204.464 189.038 204.808 188.766 205.208C188.494 205.608 188.358 206.056 188.358 206.552C188.358 207.048 188.494 207.496 188.766 207.896C189.038 208.296 189.422 208.64 189.918 208.928C190.414 209.216 190.998 209.44 191.67 209.6C192.342 209.744 193.086 209.816 193.902 209.816C194.718 209.816 195.462 209.744 196.134 209.6C196.806 209.44 197.39 209.216 197.886 208.928C198.382 208.64 198.766 208.296 199.038 207.896C199.31 207.496 199.446 207.048 199.446 206.552C199.446 206.056 199.31 205.608 199.038 205.208C198.766 204.808 198.382 204.464 197.886 204.176C197.39 203.888 196.806 203.672 196.134 203.528C195.462 203.368 194.718 203.288 193.902 203.288ZM192.87 222.752V215.336H183.894V213.608H203.862V215.336H194.886V222.752H192.87ZM225.82 218.456V220.184H205.852V218.456H225.82ZM208.684 213.416V203.048H223.228V204.776H210.7V211.688H223.468V213.416H208.684Z" fill="white"/>
</svg>
