<svg width="282" height="282" viewBox="0 0 282 282" fill="none" xmlns="http://www.w3.org/2000/svg">
<rect width="282" height="282" rx="20" fill="#343646"/>
<path fill-rule="evenodd" clip-rule="evenodd" d="M141 81C123.327 81 109 95.3269 109 113C109 130.673 123.327 145 141 145C158.673 145 173 130.673 173 113C173 95.3269 158.673 81 141 81ZM99 113C99 89.804 117.804 71 141 71C164.196 71 183 89.804 183 113C183 136.196 164.196 155 141 155C117.804 155 99 136.196 99 113Z" fill="#FFE100"/>
<path d="M57.683 218.576C56.995 218.576 56.371 218.44 55.811 218.168C55.251 217.896 54.771 217.528 54.371 217.064C53.971 216.6 53.659 216.048 53.435 215.408C53.211 214.768 53.099 214.072 53.099 213.32C53.099 212.584 53.211 211.896 53.435 211.256C53.659 210.6 53.971 210.04 54.371 209.576C54.771 209.112 55.251 208.744 55.811 208.472C56.371 208.2 56.995 208.064 57.683 208.064C58.371 208.064 58.995 208.2 59.555 208.472C60.115 208.744 60.595 209.112 60.995 209.576C61.395 210.04 61.707 210.6 61.931 211.256C62.155 211.896 62.267 212.584 62.267 213.32C62.267 214.072 62.155 214.768 61.931 215.408C61.707 216.048 61.395 216.6 60.995 217.064C60.595 217.528 60.115 217.896 59.555 218.168C58.995 218.44 58.371 218.576 57.683 218.576ZM66.875 221.744H64.907V212.24H62.627V210.44H64.907V201.728H66.875V221.744ZM68.819 201.368H70.811V222.752H68.819V201.368ZM57.683 209.744C56.787 209.744 56.115 210.08 55.667 210.752C55.235 211.408 55.019 212.264 55.019 213.32C55.019 214.376 55.235 215.24 55.667 215.912C56.115 216.568 56.787 216.896 57.683 216.896C58.579 216.896 59.243 216.568 59.675 215.912C60.123 215.24 60.347 214.376 60.347 213.32C60.347 212.264 60.123 211.408 59.675 210.752C59.243 210.08 58.579 209.744 57.683 209.744ZM52.451 206.864V205.136H56.675V202.304H58.643V205.136H62.867V206.864H52.451ZM89.9371 222.752V201.368H91.9531V222.752H89.9371ZM80.4811 218.72C79.7131 218.72 79.0011 218.552 78.3451 218.216C77.6891 217.88 77.1131 217.376 76.6171 216.704C76.1371 216.032 75.7531 215.2 75.4651 214.208C75.1931 213.2 75.0571 212.04 75.0571 210.728C75.0571 209.416 75.1931 208.264 75.4651 207.272C75.7531 206.264 76.1371 205.424 76.6171 204.752C77.1131 204.08 77.6891 203.576 78.3451 203.24C79.0011 202.904 79.7131 202.736 80.4811 202.736C81.2491 202.736 81.9611 202.904 82.6171 203.24C83.2731 203.576 83.8411 204.08 84.3211 204.752C84.8171 205.424 85.2011 206.264 85.4731 207.272C85.7611 208.264 85.9051 209.416 85.9051 210.728C85.9051 212.04 85.7611 213.2 85.4731 214.208C85.2011 215.2 84.8171 216.032 84.3211 216.704C83.8411 217.376 83.2731 217.88 82.6171 218.216C81.9611 218.552 81.2491 218.72 80.4811 218.72ZM80.4811 204.464C80.0011 204.464 79.5451 204.592 79.1131 204.848C78.6971 205.104 78.3291 205.488 78.0091 206C77.7051 206.512 77.4651 207.168 77.2891 207.968C77.1131 208.752 77.0251 209.672 77.0251 210.728C77.0251 211.784 77.1131 212.712 77.2891 213.512C77.4651 214.296 77.7051 214.944 78.0091 215.456C78.3291 215.968 78.6971 216.352 79.1131 216.608C79.5451 216.864 80.0011 216.992 80.4811 216.992C80.9611 216.992 81.4091 216.864 81.8251 216.608C82.2571 216.352 82.6251 215.968 82.9291 215.456C83.2491 214.944 83.4971 214.296 83.6731 213.512C83.8491 212.712 83.9371 211.784 83.9371 210.728C83.9371 209.672 83.8491 208.752 83.6731 207.968C83.4971 207.168 83.2491 206.512 82.9291 206C82.6251 205.488 82.2571 205.104 81.8251 204.848C81.4091 204.592 80.9611 204.464 80.4811 204.464ZM96.5352 217.736C98.2632 216.92 99.7352 215.896 100.951 214.664C102.167 213.432 103.135 212.088 103.855 210.632C103.151 210.712 102.399 210.768 101.599 210.8C100.799 210.832 100.015 210.848 99.2472 210.848H97.0632V209.144H99.1752C100.103 209.144 101.047 209.128 102.007 209.096C102.983 209.048 103.855 208.976 104.623 208.88C105.055 207.664 105.319 206.432 105.415 205.184H97.6872V203.456H107.479C107.447 205.296 107.183 207.024 106.687 208.64C106.207 210.24 105.535 211.704 104.671 213.032C103.823 214.36 102.815 215.544 101.647 216.584C100.479 217.608 99.2152 218.464 97.8552 219.152L96.5352 217.736ZM111.175 222.752V201.368H113.191V209.672H116.431V211.496H113.191V222.752H111.175ZM118.493 217.736C120.221 216.92 121.693 215.896 122.909 214.664C124.125 213.432 125.093 212.088 125.813 210.632C125.109 210.712 124.357 210.768 123.557 210.8C122.757 210.832 121.973 210.848 121.205 210.848H119.021V209.144H121.133C122.061 209.144 123.005 209.128 123.965 209.096C124.941 209.048 125.813 208.976 126.581 208.88C127.013 207.664 127.277 206.432 127.373 205.184H119.645V203.456H129.437C129.405 205.296 129.141 207.024 128.645 208.64C128.165 210.24 127.493 211.704 126.629 213.032C125.781 214.36 124.773 215.544 123.605 216.584C122.437 217.608 121.173 218.464 119.813 219.152L118.493 217.736ZM133.133 222.752V201.368H135.149V209.672H138.389V211.496H135.149V222.752H133.133ZM148.923 218.696V213.992C147.963 213.896 147.083 213.68 146.283 213.344C145.483 213.008 144.795 212.584 144.219 212.072C143.659 211.544 143.219 210.952 142.899 210.296C142.579 209.624 142.419 208.904 142.419 208.136C142.419 207.304 142.603 206.528 142.971 205.808C143.355 205.088 143.883 204.464 144.555 203.936C145.227 203.408 146.019 202.992 146.931 202.688C147.859 202.384 148.875 202.232 149.979 202.232C151.083 202.232 152.091 202.384 153.003 202.688C153.931 202.992 154.731 203.408 155.403 203.936C156.075 204.464 156.595 205.088 156.963 205.808C157.347 206.528 157.539 207.304 157.539 208.136C157.539 208.904 157.379 209.624 157.059 210.296C156.739 210.968 156.291 211.568 155.715 212.096C155.139 212.608 154.443 213.032 153.627 213.368C152.827 213.688 151.947 213.896 150.987 213.992V218.696H159.939V220.424H139.971V218.696H148.923ZM149.979 203.96C149.163 203.96 148.419 204.064 147.747 204.272C147.075 204.48 146.491 204.768 145.995 205.136C145.499 205.504 145.115 205.944 144.843 206.456C144.571 206.968 144.435 207.528 144.435 208.136C144.435 208.744 144.571 209.304 144.843 209.816C145.115 210.328 145.499 210.768 145.995 211.136C146.491 211.504 147.075 211.792 147.747 212C148.419 212.208 149.163 212.312 149.979 212.312C150.795 212.312 151.539 212.208 152.211 212C152.883 211.792 153.467 211.504 153.963 211.136C154.459 210.768 154.843 210.328 155.115 209.816C155.387 209.304 155.523 208.744 155.523 208.136C155.523 207.528 155.387 206.968 155.115 206.456C154.843 205.944 154.459 205.504 153.963 205.136C153.467 204.768 152.883 204.48 152.211 204.272C151.539 204.064 150.795 203.96 149.979 203.96ZM167.768 222.944L177.704 202.352H180.128L170.192 222.944H167.768ZM197.993 218.096C196.937 217.28 196.017 216.344 195.233 215.288C194.465 214.232 193.873 213.12 193.457 211.952C193.105 213.152 192.513 214.36 191.681 215.576C190.849 216.776 189.817 217.84 188.585 218.768L187.169 217.448C187.889 216.952 188.569 216.336 189.209 215.6C189.849 214.848 190.401 214.024 190.865 213.128C191.329 212.216 191.697 211.256 191.969 210.248C192.241 209.24 192.377 208.208 192.377 207.152V205.184H188.777V203.456H198.041V205.184H194.441V207.152C194.441 208.208 194.569 209.216 194.825 210.176C195.097 211.12 195.449 212 195.881 212.816C196.313 213.632 196.809 214.368 197.369 215.024C197.945 215.68 198.545 216.232 199.169 216.68L197.993 218.096ZM202.553 221.744H200.585V210.68H197.441V208.904H200.585V201.728H202.553V221.744ZM204.617 201.368H206.609V222.752H204.617V201.368ZM212.679 222.512V215.504H218.847V213.272H209.895V211.568H229.863V213.272H220.911V215.504H227.079V222.512H212.679ZM211.767 209.768V208.064H214.887L214.767 203.672H212.247V201.992H227.511V203.672H224.991L224.847 208.064H227.991V209.768H211.767ZM214.695 220.808H225.063V217.208H214.695V220.808ZM222.999 203.672H216.759L216.879 208.064H222.855L222.999 203.672Z" fill="white"/>
</svg>
