<svg width="282" height="282" viewBox="0 0 282 282" fill="none" xmlns="http://www.w3.org/2000/svg">
<rect width="282" height="282" rx="20" fill="#0050FF"/>
<path d="M156.538 148.408C149.175 148.402 141.996 146.105 135.998 141.835C130 137.564 125.479 131.533 123.062 124.578H131.597C133.732 129.01 137.014 132.79 141.103 135.526C145.192 138.261 149.939 139.851 154.851 140.132C159.762 140.413 164.66 139.374 169.034 137.123C173.408 134.871 177.1 131.49 179.726 127.33C182.352 123.17 183.816 118.383 183.967 113.465C184.118 108.548 182.949 103.68 180.583 99.3668C178.217 95.0536 174.739 91.4527 170.51 88.9378C166.282 86.4229 161.458 85.0858 156.538 85.0654H153.82L143.961 79.3665C147.968 77.798 152.235 76.9953 156.538 77C161.201 77.0013 165.817 77.9249 170.121 79.7176C174.425 81.5103 178.332 84.1367 181.617 87.4457C188.269 94.1544 192.001 103.219 192.001 112.666C192.001 122.113 188.269 131.178 181.617 137.887C178.331 141.194 174.424 143.82 170.12 145.612C165.816 147.405 161.201 148.329 156.538 148.333" fill="white"/>
<path d="M90 141.303V100.086L125.69 79.2158L161.298 100.086V123.986H153.474V104.668L125.711 88.4265L97.8998 104.709V133.417H109.373V141.338L90 141.303Z" fill="white"/>
<path d="M130.051 106.521H121.371V115.256H130.051V106.521Z" fill="#FFE100"/>
<path d="M78.6201 217.736C80.3481 216.92 81.8201 215.896 83.0361 214.664C84.2521 213.432 85.2201 212.088 85.9401 210.632C85.2361 210.712 84.4841 210.768 83.6841 210.8C82.8841 210.832 82.1001 210.848 81.3321 210.848H79.1481V209.144H81.2601C82.1881 209.144 83.1321 209.128 84.0921 209.096C85.0681 209.048 85.9401 208.976 86.7081 208.88C87.1401 207.664 87.4041 206.432 87.5001 205.184H79.7721V203.456H89.5641C89.5321 205.296 89.2681 207.024 88.7721 208.64C88.2921 210.24 87.6201 211.704 86.7561 213.032C85.9081 214.36 84.9001 215.544 83.7321 216.584C82.5641 217.608 81.3001 218.464 79.9401 219.152L78.6201 217.736ZM93.2601 222.752V201.368H95.2761V209.672H98.5161V211.496H95.2761V222.752H93.2601ZM100.578 217.736C102.306 216.92 103.778 215.896 104.994 214.664C106.21 213.432 107.178 212.088 107.898 210.632C107.194 210.712 106.442 210.768 105.642 210.8C104.842 210.832 104.058 210.848 103.29 210.848H101.106V209.144H103.218C104.146 209.144 105.09 209.128 106.05 209.096C107.026 209.048 107.898 208.976 108.666 208.88C109.098 207.664 109.362 206.432 109.458 205.184H101.73V203.456H111.522C111.49 205.296 111.226 207.024 110.73 208.64C110.25 210.24 109.578 211.704 108.714 213.032C107.866 214.36 106.858 215.544 105.69 216.584C104.522 217.608 103.258 218.464 101.898 219.152L100.578 217.736ZM115.218 222.752V201.368H117.234V209.672H120.474V211.496H117.234V222.752H115.218ZM131.008 218.696V213.992C130.048 213.896 129.168 213.68 128.368 213.344C127.568 213.008 126.88 212.584 126.304 212.072C125.744 211.544 125.304 210.952 124.984 210.296C124.664 209.624 124.504 208.904 124.504 208.136C124.504 207.304 124.688 206.528 125.056 205.808C125.44 205.088 125.968 204.464 126.64 203.936C127.312 203.408 128.104 202.992 129.016 202.688C129.944 202.384 130.96 202.232 132.064 202.232C133.168 202.232 134.176 202.384 135.088 202.688C136.016 202.992 136.816 203.408 137.488 203.936C138.16 204.464 138.68 205.088 139.048 205.808C139.432 206.528 139.624 207.304 139.624 208.136C139.624 208.904 139.464 209.624 139.144 210.296C138.824 210.968 138.376 211.568 137.8 212.096C137.224 212.608 136.528 213.032 135.712 213.368C134.912 213.688 134.032 213.896 133.072 213.992V218.696H142.024V220.424H122.056V218.696H131.008ZM132.064 203.96C131.248 203.96 130.504 204.064 129.832 204.272C129.16 204.48 128.576 204.768 128.08 205.136C127.584 205.504 127.2 205.944 126.928 206.456C126.656 206.968 126.52 207.528 126.52 208.136C126.52 208.744 126.656 209.304 126.928 209.816C127.2 210.328 127.584 210.768 128.08 211.136C128.576 211.504 129.16 211.792 129.832 212C130.504 212.208 131.248 212.312 132.064 212.312C132.88 212.312 133.624 212.208 134.296 212C134.968 211.792 135.552 211.504 136.048 211.136C136.544 210.768 136.928 210.328 137.2 209.816C137.472 209.304 137.608 208.744 137.608 208.136C137.608 207.528 137.472 206.968 137.2 206.456C136.928 205.944 136.544 205.504 136.048 205.136C135.552 204.768 134.968 204.48 134.296 204.272C133.624 204.064 132.88 203.96 132.064 203.96ZM151.965 205.28C151.533 205.28 151.149 205.12 150.813 204.8C150.493 204.48 150.333 204.088 150.333 203.624C150.333 203.16 150.493 202.768 150.813 202.448C151.149 202.112 151.533 201.944 151.965 201.944C152.429 201.944 152.821 202.112 153.141 202.448C153.477 202.768 153.645 203.16 153.645 203.624C153.645 204.088 153.477 204.48 153.141 204.8C152.821 205.12 152.429 205.28 151.965 205.28ZM150.885 220.76V207.68H153.093V220.76H150.885ZM177.056 222.752V201.368H179.072V209.552H182.312V211.376H179.072V222.752H177.056ZM175.856 217.232C175.2 217.376 174.496 217.496 173.744 217.592C172.992 217.688 172.216 217.768 171.416 217.832C170.616 217.896 169.808 217.944 168.992 217.976C168.192 217.992 167.424 218 166.688 218H163.232V209.552H170.864V204.92H163.232V203.216H172.88V211.232H165.248V216.272H166.688C167.424 216.272 168.184 216.264 168.968 216.248C169.768 216.216 170.56 216.176 171.344 216.128C172.144 216.064 172.92 215.984 173.672 215.888C174.44 215.792 175.168 215.68 175.856 215.552V217.232ZM203.862 218.456V220.184H183.894V218.456H203.862ZM193.878 207.944C193.51 208.632 193.054 209.28 192.51 209.888C191.966 210.496 191.35 211.064 190.662 211.592C189.974 212.104 189.238 212.568 188.454 212.984C187.67 213.384 186.862 213.72 186.03 213.992L184.878 212.408C185.934 212.088 186.942 211.656 187.902 211.112C188.878 210.552 189.726 209.92 190.446 209.216C191.182 208.496 191.766 207.728 192.198 206.912C192.63 206.08 192.846 205.224 192.846 204.344V202.568H194.91V204.344C194.91 205.224 195.126 206.08 195.558 206.912C195.99 207.728 196.566 208.496 197.286 209.216C198.022 209.92 198.87 210.552 199.83 211.112C200.806 211.656 201.822 212.088 202.878 212.408L201.726 213.992C200.894 213.72 200.086 213.384 199.302 212.984C198.518 212.568 197.782 212.104 197.094 211.592C196.406 211.064 195.782 210.496 195.222 209.888C194.678 209.28 194.23 208.632 193.878 207.944Z" fill="white"/>
</svg>
