<svg width="282" height="282" viewBox="0 0 282 282" fill="none" xmlns="http://www.w3.org/2000/svg">
<rect width="282" height="282" rx="20" fill="#FFE100"/>
<path d="M189.086 104.612L143.362 65.7489C142.188 64.7504 140.461 64.7504 139.282 65.7489L93.5581 104.612C92.4422 105.56 93.1117 107.385 94.5762 107.385H102.439V151.852C102.439 153.59 103.849 155 105.587 155H177.053C178.792 155 180.201 153.59 180.201 151.852V107.385H188.064C189.529 107.385 190.202 105.56 189.082 104.612H189.086Z" fill="#323444"/>
<path d="M141.324 87.1953C125.348 87.1953 112.395 100.149 112.395 116.125C112.395 132.101 125.348 145.054 141.324 145.054C157.3 145.054 170.253 132.101 170.253 116.125C170.253 100.149 157.3 87.1953 141.324 87.1953V87.1953ZM159.689 134.489C154.782 139.396 148.259 142.098 141.324 142.098C134.389 142.098 127.866 139.396 122.959 134.489C118.053 129.583 115.351 123.063 115.351 116.125C115.351 109.186 118.053 102.666 122.959 97.7599C127.866 92.8535 134.389 90.1517 141.324 90.1517C148.259 90.1517 154.782 92.8535 159.689 97.7599C164.595 102.666 167.297 109.186 167.297 116.125C167.297 123.063 164.595 129.583 159.689 134.489Z" fill="#FFDC00"/>
<path d="M95.7604 217.736C97.4884 216.92 98.9604 215.896 100.176 214.664C101.392 213.432 102.36 212.088 103.08 210.632C102.376 210.712 101.624 210.768 100.824 210.8C100.024 210.832 99.2404 210.848 98.4724 210.848H96.2884V209.144H98.4004C99.3284 209.144 100.272 209.128 101.232 209.096C102.208 209.048 103.08 208.976 103.848 208.88C104.28 207.664 104.544 206.432 104.64 205.184H96.9124V203.456H106.704C106.672 205.296 106.408 207.024 105.912 208.64C105.432 210.24 104.76 211.704 103.896 213.032C103.048 214.36 102.04 215.544 100.872 216.584C99.7044 217.608 98.4404 218.464 97.0804 219.152L95.7604 217.736ZM110.4 222.752V201.368H112.416V209.672H115.656V211.496H112.416V222.752H110.4ZM117.719 217.736C119.447 216.92 120.919 215.896 122.135 214.664C123.351 213.432 124.319 212.088 125.039 210.632C124.335 210.712 123.583 210.768 122.783 210.8C121.983 210.832 121.199 210.848 120.431 210.848H118.247V209.144H120.359C121.287 209.144 122.231 209.128 123.191 209.096C124.167 209.048 125.039 208.976 125.807 208.88C126.239 207.664 126.503 206.432 126.599 205.184H118.871V203.456H128.663C128.631 205.296 128.367 207.024 127.871 208.64C127.391 210.24 126.719 211.704 125.855 213.032C125.007 214.36 123.999 215.544 122.831 216.584C121.663 217.608 120.399 218.464 119.039 219.152L117.719 217.736ZM132.359 222.752V201.368H134.375V209.672H137.615V211.496H134.375V222.752H132.359ZM148.149 218.696V213.992C147.189 213.896 146.309 213.68 145.509 213.344C144.709 213.008 144.021 212.584 143.445 212.072C142.885 211.544 142.445 210.952 142.125 210.296C141.805 209.624 141.645 208.904 141.645 208.136C141.645 207.304 141.829 206.528 142.197 205.808C142.581 205.088 143.109 204.464 143.781 203.936C144.453 203.408 145.245 202.992 146.157 202.688C147.085 202.384 148.101 202.232 149.205 202.232C150.309 202.232 151.317 202.384 152.229 202.688C153.157 202.992 153.957 203.408 154.629 203.936C155.301 204.464 155.821 205.088 156.189 205.808C156.573 206.528 156.765 207.304 156.765 208.136C156.765 208.904 156.605 209.624 156.285 210.296C155.965 210.968 155.517 211.568 154.941 212.096C154.365 212.608 153.669 213.032 152.853 213.368C152.053 213.688 151.173 213.896 150.213 213.992V218.696H159.165V220.424H139.197V218.696H148.149ZM149.205 203.96C148.389 203.96 147.645 204.064 146.973 204.272C146.301 204.48 145.717 204.768 145.221 205.136C144.725 205.504 144.341 205.944 144.069 206.456C143.797 206.968 143.661 207.528 143.661 208.136C143.661 208.744 143.797 209.304 144.069 209.816C144.341 210.328 144.725 210.768 145.221 211.136C145.717 211.504 146.301 211.792 146.973 212C147.645 212.208 148.389 212.312 149.205 212.312C150.021 212.312 150.765 212.208 151.437 212C152.109 211.792 152.693 211.504 153.189 211.136C153.685 210.768 154.069 210.328 154.341 209.816C154.613 209.304 154.749 208.744 154.749 208.136C154.749 207.528 154.613 206.968 154.341 206.456C154.069 205.944 153.685 205.504 153.189 205.136C152.693 204.768 152.109 204.48 151.437 204.272C150.765 204.064 150.021 203.96 149.205 203.96ZM166.754 214.592V212.912H175.706V211.328C174.81 211.28 173.994 211.184 173.258 211.04C172.538 210.896 171.914 210.696 171.386 210.44C170.874 210.184 170.474 209.872 170.186 209.504C169.914 209.136 169.778 208.72 169.778 208.256C169.778 207.744 169.946 207.296 170.282 206.912C170.618 206.528 171.09 206.208 171.698 205.952C172.322 205.68 173.058 205.48 173.906 205.352C174.754 205.224 175.698 205.16 176.738 205.16C177.762 205.16 178.698 205.224 179.546 205.352C180.41 205.48 181.146 205.68 181.754 205.952C182.378 206.208 182.858 206.528 183.194 206.912C183.53 207.296 183.698 207.744 183.698 208.256C183.698 208.72 183.554 209.136 183.266 209.504C182.978 209.872 182.578 210.184 182.066 210.44C181.554 210.696 180.93 210.896 180.194 211.04C179.458 211.184 178.65 211.28 177.77 211.328V212.912H186.722V214.592H166.754ZM169.538 222.512V215.984H183.938V222.512H169.538ZM171.554 220.832H181.922V217.664H171.554V220.832ZM168.482 204.344V202.688H175.73V200.912H177.746V202.688H184.994V204.344H168.482ZM176.738 206.792C175.138 206.792 173.914 206.92 173.066 207.176C172.218 207.416 171.794 207.776 171.794 208.256C171.794 208.736 172.218 209.104 173.066 209.36C173.914 209.6 175.138 209.72 176.738 209.72C178.338 209.72 179.562 209.6 180.41 209.36C181.258 209.104 181.682 208.736 181.682 208.256C181.682 207.776 181.258 207.416 180.41 207.176C179.562 206.92 178.338 206.792 176.738 206.792Z" fill="#191919"/>
</svg>
